<?xml version="1.0" encoding="utf-8"?>
<!-- Generator: Adobe Illustrator 22.0.1, SVG Export Plug-In . SVG Version: 6.00 Build 0)  -->
<svg version="1.1"
	 id="svg2" inkscape:version="1.0 (1.0+r73+1)" sodipodi:docname="logo.svg" xmlns:cc="http://creativecommons.org/ns#" xmlns:dc="http://purl.org/dc/elements/1.1/" xmlns:inkscape="http://www.inkscape.org/namespaces/inkscape" xmlns:rdf="http://www.w3.org/1999/02/22-rdf-syntax-ns#" xmlns:sodipodi="http://sodipodi.sourceforge.net/DTD/sodipodi-0.dtd" xmlns:svg="http://www.w3.org/2000/svg"
	 xmlns="http://www.w3.org/2000/svg" xmlns:xlink="http://www.w3.org/1999/xlink" x="0px" y="0px" viewBox="0 0 239.3 59"
	 style="enable-background:new 0 0 239.3 59;" xml:space="preserve">
<sodipodi:namedview  bordercolor="#666666" borderopacity="1" gridtolerance="10" guidetolerance="10" id="namedview4" inkscape:current-layer="g10" inkscape:cx="72.57548" inkscape:cy="40.180671" inkscape:pageopacity="0" inkscape:pageshadow="2" inkscape:window-height="701" inkscape:window-maximized="1" inkscape:window-width="1360" inkscape:window-x="0" inkscape:window-y="30" inkscape:zoom="5.725" objecttolerance="10" pagecolor="#ffffff" showgrid="false">
	</sodipodi:namedview>
<g>
	<path d="M4.2,38V12.2h10.1c2.2,0,3.9,0.6,5.2,1.7c1.2,1.1,2,2.6,2,4.5c0,0.9-0.1,1.6-0.3,2.4c-0.2,0.6-0.5,1.2-0.8,1.8
		c-0.8,1-1.8,1.6-2.9,1.9c0.6,0,1.2,0.3,1.8,0.6c0.9,0.4,1.6,1.2,2.1,2.1c0.5,0.9,0.8,2.1,0.8,3.4c0,2.4-0.6,4.2-2,5.6
		c-1.5,1-3.3,1.8-5.7,1.8H4.2L4.2,38z M12.8,33.1c1.2,0,1.9-0.8,2.3-2.4c0-0.4,0.2-0.9,0-1.2c-0.1-1.8-1.1-2.7-2.6-2.7H11v6.3
		L12.8,33.1L12.8,33.1z M12.5,22.4c0.9,0,1.5-0.4,2-1.2c0.2-0.3,0.3-0.8,0.3-1.5c0-1.7-0.8-2.6-2.4-2.6H11v5.1L12.5,22.4L12.5,22.4z
		 M24,30.2v-18h6.8v19c0,1.1,0.2,1.7,0.4,2.1c0.3,0.4,0.8,0.6,1.5,0.6c0.8,0,1.2-0.2,1.5-0.6c0.3-0.5,0.4-1.1,0.4-2.1v-19h6.8v17.8
		c0,2.8-0.6,5-1.9,6.3c-1.4,1.3-3.5,2.1-6.5,2.1c-0.8,0-1.6,0-2.7-0.1C26.3,37.9,24,35,24,30.2L24,30.2z M44.4,38V12.2h6.8V38H44.4
		L44.4,38z M54.2,38V12.2h6.8v20.1h8.3V38H54.2L54.2,38z M70.4,38V12.2h10.3c1.5,0,2.9,0.3,3.8,0.9c1.1,0.6,1.8,1.7,2.6,3
		c0.3,0.6,0.6,1.5,0.8,2.4c0.2,0.9,0.3,2.3,0.3,3.8c0,0.6,0,1.4,0,2c0,0.6,0,1.3,0,2.1c0,4.1-0.4,6.8-1.5,8.4
		c-1.1,1.6-2.9,2.7-5.4,3L80,38H70.4L70.4,38z M78.5,33.1c1.7,0,2.7-0.9,2.7-2.6v-1V29c0-0.4,0-0.9,0-1c0-0.5,0-0.8,0-0.9
		c0-0.3,0-0.6,0-0.8c0-0.3,0-0.4,0-0.6c0-0.3,0-0.5,0-0.6s0-0.4,0-0.4c0-0.2,0-0.3,0-0.4c0-0.4,0-0.9,0-1.4c0-0.4,0-0.9,0-1.3
		c0-0.2,0-0.3,0-0.4v-0.6v-0.8c-0.2-1.7-1.1-2.4-2.6-2.4h-1.4v15.9L78.5,33.1L78.5,33.1z M90.3,38V12.2h6.8V38H90.3L90.3,38z
		 M100.1,38V12.2h7.3l4.5,15.4V12.2h6.2V38h-7.2l-4.5-15.4V38H100.1L100.1,38z M137.7,20.5h-6.6v-0.3v-0.9c0-0.9-0.1-1.6-0.5-2.3
		c-0.3-0.4-0.8-0.8-1.3-0.8c-0.3,0-0.6,0-0.8,0.1c-0.5,0.2-0.9,0.6-1.1,1.2c-0.3,0.6-0.3,1.6-0.3,3l-0.1,4.5v0.6l0.1,3.4
		c0,1.1,0,1.8,0.2,2.4c0.1,0.6,0.1,1.1,0.3,1.4c0.3,0.6,0.9,0.9,1.7,0.9c0.4,0,0.9-0.1,1.2-0.4c0.5-0.3,0.6-0.8,0.8-1.2
		c0.1-0.6,0.1-1.5,0.1-2.8v-0.9h-2.3v-4.3h8.6v14h-4.5l-0.1-2.1l-0.5,0.5c-0.6,0.8-1.4,1.2-2.1,1.5c-0.8,0.3-1.6,0.4-2.8,0.4
		c-2.7,0-4.5-0.8-5.5-2.3c-1.2-1.5-1.8-4.2-1.8-8.1c0-6.2,0.5-10.3,1.4-12.5c0.9-2.1,2.8-3.3,5.7-3.8c0.5,0,0.9-0.2,1.6-0.2
		c0.6,0,0.9,0,1.1,0c2.4,0,4.3,0.6,5.5,1.8c1.2,1.2,2,3,2.3,5.4L137.7,20.5L137.7,20.5z"/>
	<path d="M4.2,52v-9.3h2.1V52H4.2L4.2,52z M23.6,52v-9.3h1.5l6.6,5.6c0.2,0.1,0.5,0.3,0.6,0.4c0.2,0.1,0.3,0.3,0.5,0.5
		c0-0.5,0-0.9,0-1.1c0-0.1,0-0.4,0-0.4v-5h1.9V52h-1.5l-6.9-5.7c-0.1-0.1-0.3-0.3-0.4-0.4c-0.1-0.1-0.3-0.3-0.3-0.3
		c0,0.3,0,0.6,0,0.8c0,0.3,0,0.5,0,0.6V52H23.6L23.6,52z M60.6,44.3h-6.8v5.9h6.8v-2.1H57v-1.6h5.7v3.1c0,0.9-0.1,1.5-0.4,1.8
		c-0.3,0.3-0.9,0.5-1.8,0.5H54c-0.9,0-1.5-0.1-1.8-0.5c-0.3-0.3-0.4-0.9-0.4-1.8v-5c0-0.9,0.1-1.4,0.4-1.8c0.3-0.3,0.9-0.5,1.8-0.5
		h6.5c0.9,0,1.5,0.1,1.8,0.5c0.3,0.3,0.5,0.9,0.5,1.6v0.1L60.6,45V44.3L60.6,44.3z M80,52v-9.3h9.5v1.6h-7.4v2.1h4.4V48h-4.4v2.3
		h7.5v1.8L80,52L80,52z M106.1,52v-9.3h1.5l6.6,5.6c0.2,0.1,0.5,0.3,0.6,0.4c0.1,0.1,0.3,0.3,0.5,0.5c0-0.5,0-0.9,0-1.1
		c0-0.1,0-0.4,0-0.4v-5h2V52h-1.5l-6.9-5.7c-0.1-0.1-0.3-0.3-0.5-0.4c-0.1-0.1-0.3-0.3-0.3-0.3c0,0.3,0,0.6,0,0.8c0,0.3,0,0.5,0,0.6
		V52H106.1L106.1,52z M134.3,52v-9.3h2.1V52H134.3L134.3,52z M153.8,52v-9.3h9.5v1.6h-7.4v2.1h4.4V48h-4.4v2.3h7.5v1.8L153.8,52
		L153.8,52z M187.1,44.3h-4.8v2.5h4.8c0.5,0,0.6,0,0.8-0.1c0.2-0.1,0.2-0.3,0.2-0.6v-1c0-0.3,0-0.5-0.2-0.6
		C187.7,44.3,187.4,44.3,187.1,44.3L187.1,44.3z M180,52v-9.3h8c0.8,0,1.3,0.1,1.6,0.5c0.3,0.3,0.4,0.8,0.4,1.4v2.3
		c0,0.6-0.1,1-0.4,1.4c-0.3,0.3-0.9,0.4-1.6,0.4h-1.2l4.4,3.5H188l-3.8-3.5h-2.1V52H180L180,52z M207,52v-9.3h2.1V52H207L207,52z
		 M228.9,48.2h4.1l-2-3.8L228.9,48.2L228.9,48.2z M224.7,52l5.3-9.3h2.1l5.4,9.3h-2.4l-1.1-2.1h-5.8l-1,2.1H224.7z"/>
	<path d="M141.5,38.2V12.4h6.8V22h3.8v-9.6h6.8V38H152V27.5h-3.8V38L141.5,38.2L141.5,38.2z M161.1,24.7c0-3.8,0.6-6.6,1.8-8.8
		c1.5-2.8,4.1-4.2,7.4-4.2c1.1,0,2,0.2,2.6,0.3c0.8,0.2,1.3,0.4,1.9,0.8c1.6,0.9,2.9,2.1,3.6,3.8c0.6,1.7,0.9,4.3,0.9,8.3
		c0,4.9-0.6,8.4-1.6,10.5c-1.1,2.1-2.9,3.1-5.4,3.1c-3.3,0-5.9-0.5-7.7-1.5c-1.5-0.9-2.5-2.3-3-4.1c-0.4-1.2-0.6-3.1-0.6-5.4
		c0-0.4,0-0.9,0-1.4C161.1,25.7,161.1,25.1,161.1,24.7L161.1,24.7z M168,27.1c0,2.8,0.1,4.8,0.5,5.7c0.3,0.9,0.9,1.4,1.8,1.4
		c0.8,0,1.4-0.5,1.6-1.4c0.3-0.9,0.5-2.7,0.5-5.7v-3.8c0-2.8-0.1-4.7-0.5-5.6c-0.3-0.9-0.9-1.4-1.6-1.4c-0.9,0-1.4,0.5-1.6,1.4
		c-0.3,0.9-0.5,2.7-0.5,5.6L168,27.1L168,27.1z M181.7,30.2V12.4h6.8v19c0,1.1,0.1,1.7,0.5,2.1c0.3,0.5,0.8,0.6,1.5,0.6
		s1.2-0.2,1.5-0.6c0.3-0.4,0.4-1,0.4-2.1v-19h6.8v17.9c0,2.8-0.6,4.9-1.9,6.3c-1.3,1.4-3.5,2.1-6.5,2.1c-0.8,0-1.6,0-2.7-0.1
		C183.8,37.9,181.7,35.2,181.7,30.2L181.7,30.2z M201.2,30.2h6.3v0.6c0,2.1,0.8,3.2,2.1,3.2c0.2,0,0.3,0,0.6,0
		c1.2-0.3,1.8-1.1,1.8-2.6c0-0.6-0.2-1.2-0.4-1.6c-0.3-0.5-0.8-0.8-1.3-1.1l-4.5-1.9c-3-1.4-4.5-3.6-4.5-6.9c0-2.3,0.6-4.1,1.7-5.4
		c1-1.3,2.7-2.1,4.9-2.6c0.9-0.2,1.8-0.2,2.6-0.2c2.4,0,4.3,0.6,5.7,1.9c1.3,1.3,2,3.2,2,5.6v0.6h-6.3v-1.3c0-0.6-0.3-1.2-0.6-1.5
		c-0.3-0.3-0.8-0.6-1.2-0.6c-0.3,0-0.6,0-0.9,0.1c-0.8,0.3-1.1,0.9-1.1,2c0,0.8,0.2,1.2,0.5,1.6c0.3,0.5,0.9,0.8,1.7,1.2l4.2,2.1
		c1.7,0.9,2.8,1.7,3.6,2.6c0.8,0.9,1.1,2.1,1.1,3.6c0,0.2,0,0.3,0,0.4s0,0.3,0,0.4c0,0.3,0,0.4,0,0.6c0,0.2,0,0.6-0.2,1.2
		c-0.5,1.9-1.2,3.3-2.3,4.4c-1.2,0.9-2.7,1.5-5,1.8c-0.8,0-1.5,0.1-2.1,0.1c-2.8,0-4.8-0.6-6.2-1.9c-1.3-1.4-1.9-3.2-1.9-5.6
		L201.2,30.2L201.2,30.2z M220.8,38.2V12.4H236v5.4h-8.3v4.7h7.8v5.1h-7.8v5.1h8.5V38L220.8,38.2L220.8,38.2z"/>
</g>
</svg>
