<?xml version="1.0" encoding="utf-8"?>
<!-- Generator: Adobe Illustrator 22.0.1, SVG Export Plug-In . SVG Version: 6.00 Build 0)  -->
<svg version="1.1"
	 id="svg2" inkscape:version="1.0 (1.0+r73+1)" sodipodi:docname="logo.svg" xmlns:cc="http://creativecommons.org/ns#" xmlns:dc="http://purl.org/dc/elements/1.1/" xmlns:inkscape="http://www.inkscape.org/namespaces/inkscape" xmlns:rdf="http://www.w3.org/1999/02/22-rdf-syntax-ns#" xmlns:sodipodi="http://sodipodi.sourceforge.net/DTD/sodipodi-0.dtd" xmlns:svg="http://www.w3.org/2000/svg"
	 xmlns="http://www.w3.org/2000/svg" xmlns:xlink="http://www.w3.org/1999/xlink" x="0px" y="0px" viewBox="0 0 160 60"
	 style="enable-background:new 0 0 160 60;" xml:space="preserve">
<style type="text/css">
	.st0{fill:#ffffff;}
</style>
<sodipodi:namedview  bordercolor="#666666" borderopacity="1" gridtolerance="10" guidetolerance="10" id="namedview4" inkscape:current-layer="g10" inkscape:cx="72.57548" inkscape:cy="40.180671" inkscape:pageopacity="0" inkscape:pageshadow="2" inkscape:window-height="701" inkscape:window-maximized="1" inkscape:window-width="1360" inkscape:window-x="0" inkscape:window-y="30" inkscape:zoom="5.725" objecttolerance="10" pagecolor="#ffffff" showgrid="false">
	</sodipodi:namedview>
<g>
	<path class="st0" d="M2.5,34.7V17.5h6.7c1.5,0,2.6,0.4,3.5,1.1c0.8,0.7,1.3,1.7,1.3,3c0,0.6-0.1,1.1-0.2,1.6
		c-0.1,0.4-0.3,0.8-0.5,1.2c-0.5,0.7-1.2,1.1-1.9,1.3c0.4,0,0.8,0.2,1.2,0.4c0.6,0.3,1.1,0.8,1.4,1.4c0.3,0.6,0.5,1.4,0.5,2.3
		c0,1.6-0.4,2.8-1.3,3.7c-1,0.7-2.2,1.2-3.8,1.2H2.5L2.5,34.7z M8.2,31.4c0.8,0,1.3-0.5,1.5-1.6c0-0.3,0.1-0.6,0-0.8
		C9.6,27.8,9,27.2,8,27.2H7v4.2L8.2,31.4L8.2,31.4z M8,24.3c0.6,0,1-0.3,1.3-0.8c0.1-0.2,0.2-0.5,0.2-1c0-1.1-0.5-1.7-1.6-1.7H7v3.4
		L8,24.3L8,24.3z M15.7,29.5v-12h4.5v12.7c0,0.7,0.1,1.1,0.3,1.4c0.2,0.3,0.5,0.4,1,0.4s0.8-0.1,1-0.4c0.2-0.3,0.3-0.7,0.3-1.4V17.5
		h4.5v11.9c0,1.9-0.4,3.3-1.3,4.2S23.7,35,21.7,35c-0.5,0-1.1,0-1.8-0.1C17.2,34.6,15.7,32.7,15.7,29.5L15.7,29.5z M29.3,34.7V17.5
		h4.5v17.2H29.3L29.3,34.7z M35.8,34.7V17.5h4.5v13.4h5.5v3.8H35.8L35.8,34.7z M46.6,34.7V17.5h6.9c1,0,1.9,0.2,2.5,0.6
		c0.7,0.4,1.2,1.1,1.7,2c0.2,0.4,0.4,1,0.5,1.6c0.1,0.6,0.2,1.5,0.2,2.5c0,0.4,0,0.9,0,1.3c0,0.4,0,0.9,0,1.4c0,2.7-0.3,4.5-1,5.6
		s-1.9,1.8-3.6,2L53,34.7H46.6L46.6,34.7z M52,31.4c1.1,0,1.8-0.6,1.8-1.7V29v-0.3c0-0.3,0-0.6,0-0.7c0-0.3,0-0.5,0-0.6
		c0-0.2,0-0.4,0-0.5c0-0.2,0-0.3,0-0.4c0-0.2,0-0.3,0-0.4c0-0.1,0-0.3,0-0.3c0-0.1,0-0.2,0-0.3c0-0.3,0-0.6,0-0.9c0-0.3,0-0.6,0-0.9
		c0-0.1,0-0.2,0-0.3V23v-0.5c-0.1-1.1-0.7-1.6-1.7-1.6h-0.9v10.6L52,31.4L52,31.4z M59.9,34.7V17.5h4.5v17.2H59.9L59.9,34.7z
		 M66.4,34.7V17.5h4.9l3,10.3V17.5h4.1v17.2h-4.8l-3-10.3v10.3H66.4L66.4,34.7z M91.5,23h-4.4v-0.2v-0.6c0-0.6-0.1-1.1-0.3-1.5
		c-0.2-0.3-0.5-0.5-0.9-0.5c-0.2,0-0.4,0-0.5,0.1c-0.3,0.1-0.6,0.4-0.7,0.8c-0.2,0.4-0.2,1.1-0.2,2l-0.1,3v0.4l0.1,2.3
		c0,0.7,0,1.2,0.1,1.6c0.1,0.4,0.1,0.7,0.2,0.9c0.2,0.4,0.6,0.6,1.1,0.6c0.3,0,0.6-0.1,0.8-0.3c0.3-0.2,0.4-0.5,0.5-0.8
		c0.1-0.4,0.1-1,0.1-1.9v-0.6h-1.5v-2.9h5.7v9.3h-3l-0.1-1.4l-0.3,0.3c-0.4,0.5-0.9,0.8-1.4,1s-1.1,0.3-1.9,0.3
		c-1.8,0-3-0.5-3.7-1.5c-0.8-1-1.2-2.8-1.2-5.4c0-4.1,0.3-6.9,0.9-8.3s1.9-2.2,3.8-2.5c0.3,0,0.6-0.1,1.1-0.1c0.4,0,0.6,0,0.7,0
		c1.6,0,2.9,0.4,3.7,1.2c0.8,0.8,1.3,2,1.5,3.6L91.5,23L91.5,23z"/>
	<path class="st0" d="M2.5,44v-6.2h1.4V44H2.5L2.5,44z M15.4,44v-6.2h1l4.4,3.7c0.1,0.1,0.3,0.2,0.4,0.3s0.2,0.2,0.3,0.3
		c0-0.3,0-0.6,0-0.7c0-0.1,0-0.3,0-0.3v-3.3h1.3V44h-1l-4.6-3.8c-0.1-0.1-0.2-0.2-0.3-0.3c-0.1-0.1-0.2-0.2-0.2-0.2
		c0,0.2,0,0.4,0,0.5c0,0.2,0,0.3,0,0.4V44L15.4,44L15.4,44z M40.1,38.9h-4.5v3.9h4.5v-1.4h-2.4v-1.1h3.8v2.1c0,0.6-0.1,1-0.3,1.2
		s-0.6,0.3-1.2,0.3h-4.3c-0.6,0-1-0.1-1.2-0.3s-0.3-0.6-0.3-1.2v-3.3c0-0.6,0.1-0.9,0.3-1.2c0.2-0.2,0.6-0.3,1.2-0.3H40
		c0.6,0,1,0.1,1.2,0.3s0.3,0.6,0.3,1.1v0.1l-1.4,0.3V38.9L40.1,38.9z M53,44v-6.2h6.3v1.1h-4.9v1.4h2.9v1.1h-2.9v1.5h5v1.2L53,44
		L53,44z M70.4,44v-6.2h1l4.4,3.7c0.1,0.1,0.3,0.2,0.4,0.3s0.2,0.2,0.3,0.3c0-0.3,0-0.6,0-0.7c0-0.1,0-0.3,0-0.3v-3.3h1.3V44h-1
		l-4.6-3.8c-0.1-0.1-0.2-0.2-0.3-0.3c-0.1-0.1-0.2-0.2-0.2-0.2c0,0.2,0,0.4,0,0.5c0,0.2,0,0.3,0,0.4V44L70.4,44L70.4,44z M89.2,44
		v-6.2h1.4V44H89.2L89.2,44z M102.2,44v-6.2h6.3v1.1h-4.9v1.4h2.9v1.1h-2.9v1.5h5v1.2L102.2,44L102.2,44z M124.4,38.9h-3.2v1.7h3.2
		c0.3,0,0.4,0,0.5-0.1s0.1-0.2,0.1-0.4v-0.7c0-0.2,0-0.3-0.1-0.4C124.8,38.9,124.6,38.9,124.4,38.9L124.4,38.9z M119.7,44v-6.2h5.3
		c0.5,0,0.9,0.1,1.1,0.3s0.3,0.5,0.3,0.9v1.5c0,0.4-0.1,0.7-0.3,0.9c-0.2,0.2-0.6,0.3-1.1,0.3h-0.8l2.9,2.3H125l-2.5-2.3h-1.4V44
		H119.7L119.7,44z M137.7,44v-6.2h1.4V44H137.7L137.7,44z M152.3,41.5h2.7l-1.3-2.5L152.3,41.5L152.3,41.5z M149.5,44l3.5-6.2h1.4
		L158,44h-1.6l-0.7-1.4h-3.9l-0.7,1.4H149.5z"/>
	<path class="st0" d="M94,34.8V17.6h4.5V24h2.5v-6.4h4.5v17.1H101v-7h-2.5v7L94,34.8L94,34.8z M107.1,25.8c0-2.5,0.4-4.4,1.2-5.9
		c1-1.9,2.7-2.8,4.9-2.8c0.7,0,1.3,0.1,1.7,0.2c0.5,0.1,0.9,0.3,1.3,0.5c1.1,0.6,1.9,1.4,2.4,2.5c0.4,1.1,0.6,2.9,0.6,5.5
		c0,3.3-0.4,5.6-1.1,7s-1.9,2.1-3.6,2.1c-2.2,0-3.9-0.3-5.1-1c-1-0.6-1.7-1.5-2-2.7c-0.3-0.8-0.4-2.1-0.4-3.6c0-0.3,0-0.6,0-0.9
		C107.1,26.5,107.1,26.1,107.1,25.8L107.1,25.8z M111.7,27.4c0,1.9,0.1,3.2,0.3,3.8c0.2,0.6,0.6,0.9,1.2,0.9c0.5,0,0.9-0.3,1.1-0.9
		c0.2-0.6,0.3-1.8,0.3-3.8v-2.5c0-1.9-0.1-3.1-0.3-3.7c-0.2-0.6-0.6-0.9-1.1-0.9c-0.6,0-0.9,0.3-1.1,0.9c-0.2,0.6-0.3,1.8-0.3,3.7
		L111.7,27.4L111.7,27.4z M120.8,29.5V17.6h4.5v12.7c0,0.7,0.1,1.1,0.3,1.4c0.2,0.3,0.5,0.4,1,0.4s0.8-0.1,1-0.4
		c0.2-0.3,0.3-0.7,0.3-1.4V17.6h4.5v11.9c0,1.9-0.4,3.3-1.3,4.2c-0.9,0.9-2.3,1.4-4.3,1.4c-0.5,0-1.1,0-1.8-0.1
		C122.2,34.6,120.8,32.8,120.8,29.5L120.8,29.5z M133.8,29.5h4.2v0.4c0,1.4,0.5,2.1,1.4,2.1c0.1,0,0.2,0,0.4,0
		c0.8-0.2,1.2-0.7,1.2-1.7c0-0.4-0.1-0.8-0.3-1.1s-0.5-0.5-0.9-0.7l-3-1.3c-2-0.9-3-2.4-3-4.6c0-1.5,0.4-2.7,1.1-3.6
		c0.7-0.9,1.8-1.4,3.3-1.7c0.6-0.1,1.2-0.1,1.7-0.1c1.6,0,2.9,0.4,3.8,1.3c0.9,0.9,1.3,2.1,1.3,3.7v0.4h-4.2v-0.9
		c0-0.4-0.2-0.8-0.4-1s-0.5-0.4-0.8-0.4c-0.2,0-0.4,0-0.6,0.1c-0.5,0.2-0.7,0.6-0.7,1.3c0,0.5,0.1,0.8,0.3,1.1s0.6,0.5,1.1,0.8
		l2.8,1.4c1.1,0.6,1.9,1.1,2.4,1.7c0.5,0.6,0.7,1.4,0.7,2.4c0,0.1,0,0.2,0,0.3s0,0.2,0,0.3c0,0.2,0,0.3,0,0.4c0,0.1,0,0.4-0.1,0.8
		c-0.3,1.3-0.8,2.2-1.5,2.9c-0.8,0.6-1.8,1-3.3,1.2c-0.5,0-1,0.1-1.4,0.1c-1.9,0-3.2-0.4-4.1-1.3c-0.9-0.9-1.3-2.1-1.3-3.7
		L133.8,29.5L133.8,29.5z M146.9,34.8V17.6H157v3.6h-5.5v3.1h5.2v3.4h-5.2v3.4h5.7v3.6L146.9,34.8L146.9,34.8z"/>
</g>
</svg>
